<svg xmlns="http://www.w3.org/2000/svg" viewBox="0 0 100 100" width="100" height="100">
  <circle cx="50" cy="50" r="46" fill="#F8F9FA" stroke="#DFE6E9" stroke-width="3" />
  <!-- Rounded triangle rice body -->
  <path d="M50,22 C62,22 75,55 75,68 C75,78 65,78 50,78 C35,78 25,78 25,68 C25,55 38,22 50,22 Z" fill="#FFF" stroke="#DFE6E9" stroke-width="4"/>
  <!-- Nori Seaweed -->
  <path d="M40,62 L60,62 L60,78 C54,79 46,79 40,78 Z" fill="#2D3436"/>
  <!-- Rosy cheeks -->
  <circle cx="37" cy="56" r="3" fill="#FF7675" opacity="0.6"/>
  <circle cx="63" cy="56" r="3" fill="#FF7675" opacity="0.6"/>
  <!-- Happy eyes -->
  <path d="M43,48 Q46,44 49,48" stroke="#2D3436" stroke-width="2.5" fill="none" stroke-linecap="round"/>
  <path d="M51,48 Q54,44 57,48" stroke="#2D3436" stroke-width="2.5" fill="none" stroke-linecap="round"/>
</svg>
