<svg xmlns="http://www.w3.org/2000/svg" viewBox="0 0 100 100" width="100" height="100">
  <circle cx="50" cy="50" r="46" fill="#FFEAA7" stroke="#FFB84D" stroke-width="4"/>
  <!-- Shiba Face -->
  <path d="M25,45 C25,25 75,25 75,45 C75,65 25,65 25,45 Z" fill="#E67E22"/>
  <path d="M32,48 C32,35 68,35 68,48 C68,60 32,60 32,48 Z" fill="#FFF"/>
  <!-- Ears -->
  <polygon points="25,35 15,15 35,25" fill="#E67E22"/>
  <polygon points="28,32 20,18 34,25" fill="#FFA07A"/>
  <polygon points="75,35 85,15 65,25" fill="#E67E22"/>
  <polygon points="72,32 80,18 66,25" fill="#FFA07A"/>
  <!-- Eyes -->
  <circle cx="40" cy="42" r="3" fill="#2C3E50"/>
  <circle cx="60" cy="42" r="3" fill="#2C3E50"/>
  <!-- Nose/Muzzle -->
  <ellipse cx="50" cy="50" rx="8" ry="6" fill="#FFF"/>
  <path d="M47,48 L53,48 L50,51 Z" fill="#2C3E50"/>
  <path d="M50,51 L50,54 C48,54 48,56 50,56 C52,56 52,54 50,54" stroke="#2C3E50" stroke-width="1.5" fill="none"/>
  <!-- Cheeks -->
  <circle cx="34" cy="50" r="4" fill="#FF7675" opacity="0.6"/>
  <circle cx="66" cy="50" r="4" fill="#FF7675" opacity="0.6"/>
</svg>
