<svg xmlns="http://www.w3.org/2000/svg" viewBox="0 0 100 100" width="100" height="100">
  <!-- Pot Shadow -->
  <ellipse cx="50" cy="88" rx="25" ry="5" fill="#D8CFC4"/>

  <!-- Ceramic Pot -->
  <ellipse cx="50" cy="80" rx="22" ry="6" fill="#008080" stroke="#004d4d" stroke-width="2.5"/>
  <path d="M28,80 L31,86 C33,88 67,88 69,86 L72,80 Z" fill="#00a8a8" stroke="#004d4d" stroke-width="2.5" stroke-linejoin="round"/>
  <ellipse cx="50" cy="80" rx="20" ry="4" fill="#8C6D58"/> <!-- Soil -->

  <!-- Bonsai Trunk -->
  <path d="M50,80 Q45,65 52,55 Q58,45 50,35 Q48,32 50,28" fill="none" stroke="#5C4033" stroke-width="6" stroke-linecap="round"/>
  <path d="M50,80 Q45,65 52,55 Q58,45 50,35 Q48,32 50,28" fill="none" stroke="#8C6D58" stroke-width="3" stroke-linecap="round"/>
  <!-- Branch Left -->
  <path d="M47,68 Q36,64 34,58" fill="none" stroke="#5C4033" stroke-width="3" stroke-linecap="round"/>
  <!-- Branch Right -->
  <path d="M54,48 Q64,48 68,42" fill="none" stroke="#5C4033" stroke-width="3" stroke-linecap="round"/>

  <!-- Foliage Puffs -->
  <!-- Top Center Foliage -->
  <circle cx="50" cy="25" r="11" fill="#06D6A0" stroke="#048c68" stroke-width="2"/>
  <circle cx="45" cy="22" r="7" fill="#80ebd0"/>
  
  <!-- Left Foliage -->
  <circle cx="32" cy="56" r="9" fill="#06D6A0" stroke="#048c68" stroke-width="2"/>
  <circle cx="29" cy="54" r="6" fill="#80ebd0"/>
  
  <!-- Right Foliage -->
  <circle cx="68" cy="40" r="10" fill="#06D6A0" stroke="#048c68" stroke-width="2"/>
  <circle cx="65" cy="38" r="6" fill="#80ebd0"/>
</svg>
